<svg width="18" height="18" viewBox="0 0 18 18" fill="none" xmlns="http://www.w3.org/2000/svg">
<path d="M1.69635 0.719661C1.40345 0.426768 0.928579 0.426768 0.635685 0.719661C0.342792 1.01255 0.342792 1.48743 0.635686 1.78032L7.93929 9.08392L0.636279 16.3869C0.343385 16.6798 0.343385 17.1547 0.636278 17.4476C0.929172 17.7405 1.40405 17.7405 1.69694 17.4476L8.99995 10.1446L16.3029 17.4476C16.5958 17.7405 17.0707 17.7405 17.3636 17.4476C17.6565 17.1547 17.6565 16.6798 17.3636 16.3869L10.0606 9.08392L17.3642 1.78033C17.6571 1.48744 17.6571 1.01256 17.3642 0.71967C17.0713 0.426777 16.5964 0.426777 16.3035 0.71967L8.99995 8.02326L1.69635 0.719661Z" fill="#FF0044"/>
</svg>
